%
M48
M72
T01C0.6000
T02C0.7000
T03C0.8000
T04C3.0000
%
T01
X11220Y32234
X9410Y35680
X18780Y32234
X20590Y35680
X34410Y35680
X36220Y32234
X43780Y32234
X45590Y35680
X45590Y40000
X45590Y44320
X43780Y47766
X40000Y48640
X36220Y47766
X34410Y44320
X28020Y45090
X34410Y40000
X53420Y45090
X64850Y45090
X68660Y45090
X74410Y44320
X76220Y47766
X68660Y55250
X64850Y55250
X53420Y55250
X28020Y55250
X74410Y40000
X74410Y35680
X76220Y32234
X83780Y32234
X85590Y35680
X99410Y35680
X101220Y32234
X108780Y32234
X110590Y35680
X110590Y40000
X110590Y44320
X108780Y47766
X105000Y48640
X101220Y47766
X99410Y44320
X94060Y45165
X90885Y45165
X99410Y40000
X94060Y55325
X90885Y55325
T02
X60000Y48500
X60000Y43500
X60000Y36500
X60000Y31500
T03
X55880Y31242
X50419Y30480
X49276Y33147
X38608Y30861
X37719Y36068
X36449Y42037
X28702Y25146
X27305Y22945
X24765Y22945
X22225Y22945
X19685Y22945
X17145Y22945
X14605Y22945
X12065Y22945
X9525Y22945
X4445Y20955
X4445Y18415
X9525Y15325
X12065Y15325
X14605Y15325
X17145Y15325
X19685Y15325
X22225Y15325
X24765Y15325
X27305Y15325
X32131Y11557
X35325Y15325
X37865Y15325
X40405Y15325
X42945Y15325
X45485Y15325
X48025Y15325
X50565Y15325
X53105Y15325
X57912Y19050
X64770Y15320
X67310Y15320
X69850Y15320
X72390Y15320
X74930Y15320
X77470Y15320
X80010Y15320
X82550Y15320
X90824Y15160
X93364Y15160
X95904Y15160
X98444Y15160
X100984Y15160
X103524Y15160
X106064Y15160
X108604Y15160
X109093Y12319
X110744Y9398
X104775Y7112
X90250Y4130
X87376Y7620
X83900Y4130
X78820Y4130
X76327Y5969
X74168Y5461
X75565Y3810
X69469Y3556
X66120Y4130
X63580Y4130
X61040Y4130
X58500Y4130
X60706Y6350
X64389Y9906
X53420Y4130
X50880Y4130
X48340Y4130
X52197Y6096
X43260Y4130
X40720Y4130
X38180Y4130
X35640Y4130
X30560Y4130
X28020Y4130
X41402Y7620
X32512Y20701
X30353Y20320
X35325Y22945
X37865Y22945
X40405Y22945
X42945Y22945
X45485Y22945
X48025Y22945
X50565Y22945
X53105Y22945
X64770Y22940
X67310Y22940
X69850Y22940
X72390Y22940
X74930Y22940
X77470Y22940
X80010Y22940
X82550Y22940
X87376Y23114
X90824Y22780
X93364Y22780
X95904Y22780
X98444Y22780
X100984Y22780
X103524Y22780
X106064Y22780
X108604Y22780
X97155Y31877
X95123Y32766
X85725Y29972
X86360Y26670
X90932Y26670
X87249Y19812
X74549Y26162
X67691Y19050
X66040Y17653
X71120Y17653
X78232Y8128
X115570Y32639
X107950Y35306
X112776Y42291
X107315Y50038
X70993Y33909
T04
X5000Y5000
X5000Y55000
X115000Y55000
X115000Y5000
M30
