%
M48
M72
T01C0.6000
T02C0.7000
T03C0.8000
T04C3.0000
%
T01
X11220Y32234
X9410Y35680
X18780Y32234
X20590Y35680
X34410Y35680
X36220Y32234
X43780Y32234
X45590Y35680
X45590Y40000
X45590Y44320
X43780Y47766
X40000Y48640
X36220Y47766
X34410Y44320
X28020Y45090
X34410Y40000
X53420Y45090
X64850Y45090
X68660Y45090
X83780Y47766
X85590Y44320
X90885Y45165
X94060Y45165
X99410Y44320
X101220Y47766
X105000Y48640
X108780Y47766
X110590Y44320
X110590Y40000
X110590Y35680
X108780Y32234
X101220Y32234
X99410Y35680
X99410Y40000
X85590Y40000
X85590Y35680
X83780Y32234
X76220Y32234
X74410Y35680
X68660Y55250
X64850Y55250
X53420Y55250
X28020Y55250
X90885Y55325
X94060Y55325
T02
X60000Y48500
X60000Y43500
X60000Y36500
X60000Y31500
T03
X69850Y33909
X69850Y22940
X67310Y22940
X64770Y22940
X72390Y22940
X74930Y22940
X77470Y22940
X80010Y22940
X82550Y22940
X90824Y22780
X93364Y22780
X95904Y22780
X98444Y22780
X100984Y22780
X103524Y22780
X106064Y22780
X108604Y22780
X100330Y20320
X100984Y15160
X98444Y15160
X95904Y15160
X93364Y15160
X90824Y15160
X82550Y15320
X80010Y15320
X77470Y15320
X74930Y15320
X72390Y15320
X69850Y15320
X67310Y15320
X64770Y15320
X74803Y10922
X76708Y12827
X89408Y6096
X90250Y4130
X83900Y4130
X78820Y4130
X66120Y4130
X63580Y4130
X61040Y4130
X58500Y4130
X53420Y4130
X50880Y4130
X48340Y4130
X43260Y4130
X40720Y4130
X38180Y4130
X35640Y4130
X30560Y4130
X28020Y4130
X27305Y15325
X24765Y15325
X22225Y15325
X19685Y15325
X17145Y15325
X14605Y15325
X12065Y15325
X9525Y15325
X9525Y22945
X12065Y22945
X14605Y22945
X17145Y22945
X19685Y22945
X22225Y22945
X24765Y22945
X27305Y22945
X35325Y22945
X37865Y22945
X40405Y22945
X42945Y22945
X45485Y22945
X48025Y22945
X50565Y22945
X53105Y22945
X53105Y15325
X50565Y15325
X48025Y15325
X45485Y15325
X42945Y15325
X40405Y15325
X37865Y15325
X35325Y15325
X61722Y8001
X99695Y27178
X101854Y36195
X97028Y39497
X96647Y41529
X92710Y41529
X92710Y39497
X105410Y46228
X106064Y15160
X108604Y15160
X103524Y15160
X43307Y34671
X39751Y31115
X41148Y44577
X38481Y45974
T04
X5000Y5000
X5000Y55000
X115000Y55000
X115000Y5000
M30
