%
M48
M72
T01C0.6000
T02C0.7000
T03C0.8000
T04C0.8128
T05C0.9000
T06C3.0000
%
T01
X16220Y37234
X14410Y40680
X23780Y37234
X25590Y40680
X39410Y40680
X41220Y37234
X48780Y37234
X50590Y40680
X50590Y45000
X50590Y49320
X48780Y52766
X45000Y53640
X41220Y52766
X39410Y49320
X39410Y45000
X79410Y40680
X81220Y37234
X88780Y37234
X90590Y40680
X90590Y45000
X90590Y49320
X88780Y52766
X104410Y49320
X106220Y52766
X110000Y53640
X113780Y52766
X115590Y49320
X115590Y45000
X115590Y40680
X113780Y37234
X106220Y37234
X104410Y40680
X104410Y45000
T02
X65000Y40270
X65000Y37730
X65000Y49730
X65000Y52270
T03
X69850Y50090
X73660Y50090
X58420Y50090
X58420Y60250
X69850Y60250
X73660Y60250
X97790Y60250
X97790Y50090
X123190Y50250
X123190Y40090
X91440Y4050
X87630Y4050
X83820Y4050
X71120Y4050
X68580Y4050
X66040Y4050
X63500Y4050
X58420Y4050
X55880Y4050
X53340Y4050
X48260Y4050
X45720Y4050
X43180Y4050
X40640Y4050
X35560Y4050
X33020Y4050
X33020Y50090
X33020Y60250
X71040Y27940
X73580Y27940
X76120Y27940
X78660Y27940
X81200Y27940
X83740Y27940
X86280Y27940
X88820Y27940
X99380Y27780
X101920Y27780
X104460Y27780
X107000Y27780
X109540Y27780
X112080Y27780
X114620Y27780
X117160Y27780
X117160Y20160
X114620Y20160
X112080Y20160
X109540Y20160
X107000Y20160
X104460Y20160
X101920Y20160
X99380Y20160
X88820Y20320
X86280Y20320
X83740Y20320
X81200Y20320
X78660Y20320
X76120Y20320
X73580Y20320
X71040Y20320
X56200Y19690
X53660Y19690
X51120Y19690
X48580Y19690
X46040Y19690
X43500Y19690
X40960Y19690
X38420Y19690
X29130Y19690
X26590Y19690
X24050Y19690
X21510Y19690
X18970Y19690
X16430Y19690
X13890Y19690
X11350Y19690
X11350Y27310
X13890Y27310
X16430Y27310
X18970Y27310
X21510Y27310
X24050Y27310
X26590Y27310
X29130Y27310
X38420Y27310
X40960Y27310
X43500Y27310
X46040Y27310
X48580Y27310
X51120Y27310
X53660Y27310
X56200Y27310
T05
X41656Y34163
X45974Y38735
X52705Y38481
X44704Y47625
X47498Y49784
X76200Y41148
X81153Y43307
X93726Y48895
X109601Y56769
X112903Y47625
X119634Y40513
X117602Y38227
X101346Y37846
X77851Y8255
X34544Y27813
T06
X5000Y5000
X5000Y60000
X125000Y60000
X125000Y5000
M30
