%
M48
M72
T01C0.7000
T02C0.8000
T03C0.9000
T04C1.0000
T05C1.1000
T06C1.2000
T07C3.0000
%
T01
X129540Y36830
X132080Y36830
X132080Y45720
X129540Y45720
X129540Y54610
X132080Y54610
X132080Y64770
X129540Y64770
T02
X119380Y59690
X109220Y59690
X24765Y57150
X19685Y57150
X19685Y69850
X24765Y69850
T03
X109220Y73025
X109220Y64770
X109220Y54610
X109220Y45720
X109220Y36830
X124460Y36830
X124460Y45720
X124460Y54610
X124460Y64770
X124460Y73025
T04
X130810Y73025
X82550Y65405
X82550Y81280
X62230Y81280
X33655Y66040
X33655Y63500
X33655Y60960
T05
X57150Y67310
X30480Y81915
X30480Y84455
X30480Y86995
X57150Y46990
X41148Y33020
X55880Y31750
X55880Y29210
X55880Y26670
X52070Y22225
X29083Y23622
X19939Y37846
X85090Y31750
X85090Y29210
X85090Y26670
T06
X88900Y6350
X93900Y6350
X98900Y6350
X51990Y7620
X46990Y7620
X29130Y7620
X24130Y7620
X9525Y28020
X9525Y33020
X9525Y40085
X9525Y45085
X6350Y60960
X6350Y64770
X57250Y59560
X62290Y59560
X67330Y59560
X67330Y52000
X62290Y52000
X57250Y52000
X82450Y52000
X82450Y59560
X77470Y91440
X72470Y91440
X94060Y91440
X99060Y91440
X120730Y91440
X125730Y91440
T07
X5000Y5000
X70866Y29210
X100076Y29210
X145000Y5000
X45466Y84455
X5000Y95000
X145000Y95000
M30
