%
M48
M72
T01C0.6000
T02C0.8000
T03C1.0000
T04C1.1000
T05C1.2000
T06C3.0000
%
T01
X21590Y15240
X21590Y17780
X26670Y17780
X26670Y15240
X41910Y15240
X41910Y17780
X46990Y17780
X46990Y15240
X62230Y15240
X62230Y17780
X67310Y17780
X67310Y15240
X82550Y15240
X82550Y17780
X87630Y17780
X87630Y15240
X102870Y15240
X102870Y17780
X107950Y17780
X107950Y15240
X123190Y15240
X123190Y17780
X128270Y17780
X128270Y15240
T02
X133350Y17780
X135890Y17780
X115570Y17780
X113030Y17780
X95250Y17780
X92710Y17780
X74930Y17780
X72390Y17780
X54610Y17780
X52070Y17780
X34290Y17780
X31750Y17780
X36830Y44450
X36830Y46990
X32385Y60325
X29845Y60325
X53340Y79375
X55880Y79375
X60960Y79375
X63500Y79375
X35560Y82550
X33020Y82550
X20320Y82550
X17780Y82550
X61595Y61595
X64135Y61595
X104140Y80010
X106680Y80010
X116840Y80010
X119380Y80010
X129540Y80010
X132080Y80010
X142240Y80010
X144780Y80010
X124460Y53340
X124460Y50800
X132080Y45720
X132080Y43180
T03
X131445Y26670
X128905Y26670
X126365Y26670
X111125Y26670
X108585Y26670
X106045Y26670
X90805Y26670
X88265Y26670
X85725Y26670
X70485Y26670
X67945Y26670
X65405Y26670
X50165Y26670
X47625Y26670
X45085Y26670
X29845Y26670
X27305Y26670
X24765Y26670
X17780Y68580
X17780Y71120
X17780Y73660
X36830Y73660
X36830Y71120
X36830Y68580
T04
X26670Y55245
X17780Y55245
X24130Y45085
X24130Y38735
X71882Y64516
X70104Y73660
X66421Y76327
X96266Y63500
X94615Y54610
X109982Y73406
X100330Y78105
X101092Y82804
X122682Y73406
X135382Y73406
T05
X154305Y55085
X154305Y50085
X154305Y45085
X130810Y5080
X127000Y5080
X110490Y5080
X106680Y5080
X90170Y5080
X86360Y5080
X69850Y5080
X66040Y5080
X49530Y5080
X45720Y5080
X29210Y5080
X25400Y5080
X5715Y45245
X5715Y50245
X5715Y55245
X16510Y95250
X20320Y95250
X31750Y95250
X35560Y95250
X50800Y95250
X54610Y95250
X58420Y95250
X62230Y95250
X73660Y95250
X77470Y95250
X81280Y95250
X85090Y95250
X88900Y95250
X92710Y95250
X104140Y95250
X107950Y95250
X111760Y95250
X115570Y95250
X119380Y95250
X123190Y95250
X127000Y95250
X130810Y95250
T06
X5000Y5000
X5000Y95000
X155000Y95000
X155000Y5000
M30
