%
M48
M72
T01C0.8000
T02C0.9000
T03C2.5000
T04C3.0000
%
T01
X35560Y6350
X40640Y6350
X43180Y6350
X45720Y10160
X45720Y39370
X43180Y44450
X40640Y44450
X35560Y43180
T02
X30480Y43180
X30480Y36830
X15240Y43180
X45720Y36830
X45720Y12700
X30480Y12700
X30480Y6350
X15240Y6350
T03
X15240Y19050
X21590Y19050
X30480Y19050
X36830Y19050
X36830Y29210
X30480Y29210
X21590Y29210
X15240Y29210
X53340Y29210
X53340Y35560
X53340Y19050
X53340Y12700
T04
X5000Y5000
X5000Y45000
X60000Y45000
X60000Y5000
M30
