%
M48
M72
T01C0.4000
T02C0.6000
T03C0.8000
T04C1.0000
T05C3.2000
%
T01
X10400Y29845
X12940Y29845
T02
X16750Y32385
X16750Y37465
X18655Y25400
X6590Y25400
X6590Y15240
X18655Y15240
X40245Y29845
X40245Y40005
X59295Y39370
X69455Y39370
T03
X71995Y33020
X74535Y33020
X74535Y30480
X71995Y30480
X71995Y27940
X74535Y27940
X74535Y25400
X71995Y25400
X71995Y22860
X74535Y22860
X74535Y20320
X71995Y20320
X71995Y17780
X74535Y17780
X74535Y15240
X71995Y15240
X58025Y14605
X58025Y12065
X58025Y9525
X58025Y6985
X50405Y6985
X50405Y9525
X50405Y12065
X50405Y14605
X50405Y17145
X50405Y19685
X50405Y22225
X50405Y24765
X50405Y27305
X50405Y29845
X58025Y29845
X58025Y27305
X58025Y24765
X58025Y22225
X58025Y19685
X58025Y17145
X42531Y19050
X49770Y43815
X52310Y43815
X54850Y43815
X26275Y43815
X23735Y43815
T04
X5955Y37425
X5955Y32425
T05
X5000Y5000
X5000Y45000
X80000Y45000
X80000Y5000
M30
