%
M48
M72
T01C0.4000
T02C0.6000
T03C0.8000
T04C1.0000
T05C3.2000
%
T01
X22860Y29845
X25400Y29845
T02
X31750Y32385
X31750Y37465
X29845Y25400
X17780Y25400
X17780Y15240
X29845Y15240
X55245Y29845
X74295Y39370
X84455Y39370
X55245Y40005
T03
X64770Y43815
X67310Y43815
X69850Y43815
X86995Y33020
X89535Y33020
X89535Y30480
X86995Y30480
X86995Y27940
X89535Y27940
X89535Y25400
X86995Y25400
X86995Y22860
X89535Y22860
X89535Y20320
X86995Y20320
X86995Y17780
X89535Y17780
X89535Y15240
X86995Y15240
X73025Y14605
X73025Y12065
X73025Y9525
X73025Y6985
X65405Y6985
X65405Y9525
X65405Y12065
X65405Y14605
X65405Y17145
X65405Y19685
X65405Y22225
X65405Y24765
X65405Y27305
X65405Y29845
X73025Y29845
X73025Y27305
X73025Y24765
X73025Y22225
X73025Y19685
X73025Y17145
X57531Y19050
X41275Y43815
X38735Y43815
T04
X15875Y37425
X15875Y32425
T05
X5000Y5000
X5000Y45000
X95000Y45000
X95000Y5000
M30
