%
M48
M72
T01C0.6000
T02C0.8000
T03C0.8128
%
T01
X29972Y22860
X33528Y22860
T02
X29845Y9525
X32385Y9525
X40005Y9525
X36830Y20193
X50165Y29845
X57023Y36576
X52197Y40767
X39497Y46736
X16002Y43053
X10795Y41910
X8255Y41910
X8255Y44450
X10795Y44450
X10795Y46990
X8255Y46990
X8255Y49530
X10795Y49530
X9525Y55245
X9525Y57785
X23749Y65151
X34671Y69469
X74803Y44831
X76835Y48895
X76835Y52070
X88265Y52070
X88265Y49530
X88265Y46990
X88265Y44450
X88265Y38735
X88265Y36195
X88265Y30480
X88265Y27940
X88265Y25400
X88265Y20320
X88265Y17780
X88265Y15240
X88265Y12700
X76073Y14986
X76200Y18415
X76200Y21590
X75311Y40259
X88265Y57150
X88265Y59690
X88265Y62230
X10795Y26670
X8255Y26670
X8255Y24130
X10795Y24130
X9525Y33655
T03
X27305Y34925
X29845Y34925
X32385Y34925
X34925Y34925
X37465Y34925
X40005Y34925
X42545Y34925
X42545Y42545
X40005Y42545
X37465Y42545
X34925Y42545
X32385Y42545
X29845Y42545
X27305Y42545
X27305Y53975
X29845Y53975
X32385Y53975
X34925Y53975
X37465Y53975
X40005Y53975
X42545Y53975
X42545Y61595
X40005Y61595
X37465Y61595
X34925Y61595
X32385Y61595
X29845Y61595
X27305Y61595
X56515Y62865
X59055Y62865
X61595Y62865
X64135Y62865
X66675Y62865
X69215Y62865
X71755Y62865
X71755Y55245
X69215Y55245
X66675Y55245
X64135Y55245
X61595Y55245
X59055Y55245
X56515Y55245
X55880Y48895
X58420Y48895
X60960Y48895
X63500Y48895
X66040Y48895
X68580Y48895
X71120Y48895
X71120Y41275
X68580Y41275
X66040Y41275
X63500Y41275
X60960Y41275
X58420Y41275
X55880Y41275
X55880Y33020
X58420Y33020
X60960Y33020
X63500Y33020
X66040Y33020
X68580Y33020
X71120Y33020
X71120Y25400
X68580Y25400
X66040Y25400
X63500Y25400
X60960Y25400
X58420Y25400
X55880Y25400
X55880Y18415
X58420Y18415
X60960Y18415
X63500Y18415
X66040Y18415
X68580Y18415
X71120Y18415
X71120Y10795
X68580Y10795
X66040Y10795
X63500Y10795
X60960Y10795
X58420Y10795
X55880Y10795
M30
