%
M48
M72
T01C0.6000
T02C0.8000
%
T01
X26162Y16510
X29718Y16510
T02
X4445Y17780
X6985Y17780
X6985Y20320
X4445Y20320
X5715Y27305
X4445Y35560
X6985Y35560
X6985Y38100
X4445Y38100
X4445Y40640
X6985Y40640
X6985Y43180
X4445Y43180
X5715Y48895
X5715Y51435
X19939Y58801
X30861Y63119
X35687Y40386
X48387Y34417
X53213Y30226
X46355Y23495
X33020Y13843
X36195Y5715
X28575Y5715
X26035Y5715
X12192Y36703
X70993Y38481
X73025Y42545
X73025Y45720
X84455Y45720
X84455Y43180
X84455Y40640
X84455Y38100
X84455Y32385
X84455Y29845
X84455Y24130
X84455Y21590
X84455Y19050
X84455Y13970
X84455Y11430
X84455Y8890
X84455Y6350
X72263Y8636
X72390Y12065
X72390Y15240
X71501Y33909
X84455Y50800
X84455Y53340
X84455Y55880
X67945Y56515
X65405Y56515
X62865Y56515
X60325Y56515
X57785Y56515
X55245Y56515
X52705Y56515
X52705Y48895
X55245Y48895
X57785Y48895
X60325Y48895
X62865Y48895
X65405Y48895
X67945Y48895
X67310Y42545
X64770Y42545
X62230Y42545
X59690Y42545
X57150Y42545
X54610Y42545
X52070Y42545
X52070Y34925
X54610Y34925
X57150Y34925
X59690Y34925
X62230Y34925
X64770Y34925
X67310Y34925
X67310Y26670
X64770Y26670
X62230Y26670
X59690Y26670
X57150Y26670
X54610Y26670
X52070Y26670
X52070Y19050
X54610Y19050
X57150Y19050
X59690Y19050
X62230Y19050
X64770Y19050
X67310Y19050
X67310Y12065
X64770Y12065
X62230Y12065
X59690Y12065
X57150Y12065
X54610Y12065
X52070Y12065
X52070Y4445
X54610Y4445
X57150Y4445
X59690Y4445
X62230Y4445
X64770Y4445
X67310Y4445
X38735Y28575
X36195Y28575
X33655Y28575
X31115Y28575
X28575Y28575
X26035Y28575
X23495Y28575
X23495Y36195
X26035Y36195
X28575Y36195
X31115Y36195
X33655Y36195
X36195Y36195
X38735Y36195
X38735Y47625
X36195Y47625
X33655Y47625
X31115Y47625
X28575Y47625
X26035Y47625
X23495Y47625
X23495Y55245
X26035Y55245
X28575Y55245
X31115Y55245
X33655Y55245
X36195Y55245
X38735Y55245
M30
